<?xml version="1.0" encoding="iso-8859-1"?>
<!-- Generator: Adobe Illustrator 19.0.0, SVG Export Plug-In . SVG Version: 6.00 Build 0)  -->
<svg version="1.1" id="Capa_1" xmlns="http://www.w3.org/2000/svg" xmlns:xlink="http://www.w3.org/1999/xlink" x="0px" y="0px"
	 viewBox="0 0 489.71 489.71" style="enable-background:new 0 0 489.71 489.71;" xml:space="preserve">
<g>
	<g>
		<g>
			<path d="M464,0.005h-84.8v125.6H110.9V0.005H26.1c-14.4,0-26.1,11.7-26.1,26.1v437.5c0,14.4,11.7,26.1,26.1,26.1h437.5
				c14.4,0,26.1-11.7,26.1-26.1v-437.5C490.1,11.705,478.4,0.005,464,0.005z M109.4,454.605H41.3v-68.1h68.1V454.605z
				 M245.1,334.405c-49.4,0-89.4-40.1-89.4-89.4s40.1-89.4,89.4-89.4s89.4,40.1,89.4,89.4S294.5,334.405,245.1,334.405z"/>
			<path d="M334.5,96.805c5.4,0,10.1-4.3,10.1-10.1v-47.8c0-5.4-4.3-10.1-10.1-10.1c-5.4,0-10.1,4.3-10.1,10.1v47.8
				C324.4,92.205,329.1,96.805,334.5,96.805z"/>
		</g>
	</g>
</g>
<g>
</g>
<g>
</g>
<g>
</g>
<g>
</g>
<g>
</g>
<g>
</g>
<g>
</g>
<g>
</g>
<g>
</g>
<g>
</g>
<g>
</g>
<g>
</g>
<g>
</g>
<g>
</g>
<g>
</g>
</svg>
